<?xml version="1.0" encoding="iso-8859-1"?>
<!-- Generator: Adobe Illustrator 19.0.0, SVG Export Plug-In . SVG Version: 6.00 Build 0)  -->
<svg version="1.1" id="Capa_1" xmlns="http://www.w3.org/2000/svg" xmlns:xlink="http://www.w3.org/1999/xlink" x="0px" y="0px" fill="rgb(255, 255, 255)"
	 viewBox="0 0 487.968 487.968" style="enable-background:new 0 0 487.968 487.968;" xml:space="preserve">
<g>
	<g>
		<circle cx="291.984" cy="151.968" r="16"/>
	</g>
</g>
<g>
	<g>
		<path d="M241.64,173.624l-11.312-11.312l-16,16c-3.123,3.124-3.123,8.188,0,11.312l16,16l11.312-11.312l-10.344-10.344
			L241.64,173.624z"/>
	</g>
</g>
<g>
	<g>
		<path d="M264.408,208.848c-9.42,4.679-19.794,7.116-30.312,7.12h-6.112v16h6.112c13-0.005,25.822-3.017,37.464-8.8
			L264.408,208.848z"/>
	</g>
</g>
<g>
	<g>
		<path d="M410.808,356.896l-25.624-230.528C376.504,48.385,306.25-7.796,228.267,0.885
			c-66.02,7.349-118.135,59.463-125.483,125.483l-25.6,230.544c-6.028,10.701-9.196,22.774-9.2,35.056v88c0,4.418,3.582,8,8,8h336
			c4.418,0,8-3.582,8-8v-88C419.99,379.683,416.83,367.604,410.808,356.896z M369.28,128.12l23.032,207.224l-0.152-0.112
			c-6.038-4.709-12.79-8.423-20-11c-0.304-0.112-0.608-0.232-0.912-0.336c-1.448-0.496-2.912-0.928-4.392-1.336
			c-0.704-0.192-1.416-0.376-2.128-0.544c-0.248-0.064-0.496-0.136-0.744-0.192V119.968c-0.016-7.608-0.758-15.197-2.216-22.664
			C365.562,107.218,368.086,117.572,369.28,128.12z M139.984,119.968c0-57.438,46.562-104,104-104s104,46.562,104,104v19.816
			c-4.424-2.468-9.398-3.781-14.464-3.816h-7.136c-22.962-14.282-39.45-36.954-45.96-63.2l-4.68-18.736
			c-1.077-4.285-5.424-6.886-9.709-5.809c-2.645,0.665-4.769,2.631-5.635,5.216c-14.07,41.872-49.133,73.253-92.304,82.608
			l-5.792,1.24l-14.256,3.064c-2.823,0.635-5.539,1.675-8.064,3.088V119.968z M171.984,182.52v-30.952
			c2.816-0.616,5.52-1.504,8.272-2.288c-0.168,0.887-0.259,1.786-0.272,2.688c-0.043,8.836,7.086,16.034,15.922,16.077
			c8.836,0.043,16.034-7.086,16.077-15.922c0.024-5.024-2.313-9.768-6.312-12.811c25.579-12.995,46.61-33.449,60.312-58.656
			c7.912,27.891,25.679,51.963,50,67.744v34.12c0.107,29.771-13.426,57.951-36.728,76.48c-0.08,0.064-0.168,0.088-0.248,0.144
			c-2.4,1.944-5,3.736-7.608,5.432l-1.416,0.904c-2.64,1.648-5.336,3.2-8.112,4.6c-5.231,2.591-10.965,4.005-16.8,4.144
			c-0.352,0-0.704,0.064-1.048,0.064c-0.52,0-1.024-0.072-1.544-0.088c-5.679-0.197-11.25-1.601-16.344-4.12
			c-2.776-1.392-5.472-2.952-8.112-4.6l-1.416-0.904c-2.608-1.696-5.168-3.488-7.608-5.432c-0.08-0.056-0.168-0.08-0.248-0.144
			C185.435,240.479,171.886,212.297,171.984,182.52z M195.984,269.168v34.8c0,8.837-7.163,16-16,16h-40V196.84
			c0.28,0.152,0.536,0.344,0.8,0.488l17.6,8.8C163.539,230.745,176.773,252.934,195.984,269.168z M291.984,269.176
			c21.23-17.967,35.08-43.139,38.896-70.688l10.024-2.512c2.471-0.648,4.85-1.608,7.08-2.856v126.848h-40c-8.837,0-16-7.163-16-16
			V269.176z M331.984,181.72v-29.752h1.536c7.988,0.003,14.462,6.48,14.459,14.469c-0.002,6.635-4.518,12.418-10.955,14.027
			L331.984,181.72z M141.416,163.747c1.961-3.989,5.655-6.848,10.007-7.747l4.56-0.992v27.512v4.504l-8-4
			C140.847,179.514,137.907,170.884,141.416,163.747z M118.712,128.144c1.194-10.548,3.718-20.902,7.512-30.816
			c-1.464,7.458-2.214,15.039-2.24,22.64v201.856l-0.752,0.192c-0.704,0.168-1.416,0.352-2.12,0.544
			c-1.48,0.408-2.944,0.84-4.392,1.336c-0.304,0.104-0.608,0.224-0.912,0.336c-7.21,2.577-13.962,6.291-20,11l-0.152,0.112
			L118.712,128.144z M358.584,471.968h-229.2c-0.617-16.488,4.081-32.737,13.4-46.352l98.328,37.824
			c1.851,0.696,3.893,0.696,5.744,0l98.328-37.824C354.503,439.231,359.201,455.48,358.584,471.968z M403.984,471.968h-29.6
			c0.688-21.037-5.8-41.683-18.4-58.544v-37.456h-16v34.504l-96,36.928l-96-36.928v-34.504h-16v37.456
			c-12.6,16.861-19.088,37.507-18.4,58.544h-29.6v-80c-0.003-10.126,2.764-20.061,8-28.728c1.173-1.968,2.469-3.859,3.88-5.664
			l0.12-0.16c2.965-3.762,6.398-7.131,10.216-10.024l0.152-0.112c5.642-4.236,12.026-7.378,18.824-9.264
			c0.312-0.088,0.624-0.16,0.936-0.24c1.846-0.475,3.715-0.854,5.6-1.136c0.488-0.072,0.968-0.16,1.464-0.216
			c2.258-0.294,4.531-0.446,6.808-0.456h40c17.673,0,32-14.327,32-32v-23.36c2.267,1.328,4.584,2.589,6.952,3.784
			c15.778,7.84,34.318,7.84,50.096,0c2.373-1.189,4.691-2.451,6.952-3.784v23.36c0,17.673,14.327,32,32,32h40
			c2.266,0.011,4.529,0.163,6.776,0.456c0.496,0.056,0.976,0.144,1.464,0.216c1.885,0.282,3.754,0.661,5.6,1.136
			c0.312,0.08,0.624,0.152,0.936,0.24c6.798,1.886,13.182,5.028,18.824,9.264l0.152,0.112c3.831,2.889,7.275,6.258,10.248,10.024
			l0.12,0.152c1.409,1.814,2.707,3.711,3.888,5.68c5.231,8.666,7.994,18.597,7.992,28.72V471.968z"/>
	</g>
</g>
<g>
</g>
<g>
</g>
<g>
</g>
<g>
</g>
<g>
</g>
<g>
</g>
<g>
</g>
<g>
</g>
<g>
</g>
<g>
</g>
<g>
</g>
<g>
</g>
<g>
</g>
<g>
</g>
<g>
</g>
</svg>
