<?xml version="1.0" encoding="iso-8859-1"?>
<!-- Generator: Adobe Illustrator 19.0.0, SVG Export Plug-In . SVG Version: 6.00 Build 0)  -->
<svg version="1.1" id="Capa_1" xmlns="http://www.w3.org/2000/svg" xmlns:xlink="http://www.w3.org/1999/xlink" x="0px" y="0px"
	 viewBox="0 0 480.646 480.646" style="enable-background:new 0 0 480.646 480.646;" xml:space="preserve">
<g>
	<path style="fill:#A2DAE7;" d="M118.967,255.808c-46.35-12.815-73.535-60.778-60.719-107.127c1.364-4.933,3.16-9.736,5.367-14.353
		L120.319,24l120,32l-11.456,124c-4.488,47.883-46.943,83.062-94.826,78.574C128.943,258.097,123.9,257.171,118.967,255.808
		L118.967,255.808z"/>
	<path style="fill:#A2DAE7;" d="M136.319,416.608l-120-32c4.353-17.402,21.988-27.981,39.39-23.628
		c0.161,0.04,0.321,0.082,0.482,0.124l57.24,15.264c17.134,4.577,27.431,22.049,23.136,39.256L136.319,416.608z"/>
	<path style="fill:#A2DAE7;" d="M101.911,375.216l-30.848-8.52l41.008-145.96l30.84,8.52L101.911,375.216z"/>
	<path style="fill:#A2DAE7;" d="M361.671,319.808c46.352-12.808,73.544-60.766,60.737-107.117
		c-1.367-4.948-3.169-9.765-5.385-14.395L360.319,88l-120,32l11.456,124c4.488,47.883,46.943,83.062,94.826,78.574
		C351.696,322.097,356.739,321.171,361.671,319.808L361.671,319.808z"/>
	<path style="fill:#A2DAE7;" d="M344.319,472.608l120-31.392c-4.353-17.402-21.988-27.981-39.39-23.628
		c-0.161,0.04-0.321,0.082-0.482,0.124l-57.24,15.264c-17.137,4.573-27.436,22.049-23.136,39.256L344.319,472.608z"/>
	<path style="fill:#A2DAE7;" d="M378.727,431.824l30.848-8.52l-41.008-138.568l-30.84,8.52L378.727,431.824z"/>
</g>
<g>
	<g>
		<path id="SVGCleanerId_0" style="fill:#FFDDA6;" d="M258.663,34.34l24.002-24.002l11.314,11.314l-24.002,24.002L258.663,34.34z"/>
	</g>
	<g>
		<path id="SVGCleanerId_1" style="fill:#FFDDA6;" d="M280.319,56h32v16h-32V56z"/>
	</g>
	<g>
		<path id="SVGCleanerId_2" style="fill:#FFDDA6;" d="M224.319,0h16v32h-16V0z"/>
	</g>
	<g>
		<path id="SVGCleanerId_3" style="fill:#FFDDA6;" d="M408.319,32.608h16v24h-16V32.608z"/>
	</g>
	<g>
		<path id="SVGCleanerId_4" style="fill:#FFDDA6;" d="M384.319,56.608h24v16h-24V56.608z"/>
	</g>
	<g>
		<path id="SVGCleanerId_5" style="fill:#FFDDA6;" d="M408.319,72.608h16v24h-16V72.608z"/>
	</g>
	<g>
		<path id="SVGCleanerId_6" style="fill:#FFDDA6;" d="M424.319,56.608h24v16h-24V56.608z"/>
	</g>
	<g>
		<path id="SVGCleanerId_7" style="fill:#FFDDA6;" d="M40.319,0.608h16v24h-16V0.608z"/>
	</g>
	<g>
		<path id="SVGCleanerId_8" style="fill:#FFDDA6;" d="M16.319,24.608h24v16h-24V24.608z"/>
	</g>
	<g>
		<path id="SVGCleanerId_9" style="fill:#FFDDA6;" d="M40.319,40.608h16v24h-16V40.608z"/>
	</g>
	<g>
		<path id="SVGCleanerId_10" style="fill:#FFDDA6;" d="M56.319,24.608h24v16h-24V24.608z"/>
	</g>
</g>
<g>
	<path style="fill:#FC5B68;" d="M226.095,172.872c-21.733-13.041-47.548-17.511-72.4-12.536
		c-26.494,5.297-54.008-0.147-76.488-15.136l-14.176-9.448c-19.984,43.71-0.75,95.345,42.961,115.329
		c4.193,1.917,8.532,3.498,12.975,4.727c46.356,12.809,94.318-14.387,107.127-60.742c1.366-4.944,2.293-9.999,2.769-15.106
		l0.472-5.176L226.095,172.872z"/>
	<path style="fill:#FC5B68;" d="M342.943,216.336c-24.852-4.975-50.667-0.505-72.4,12.536l-19.104,11.464l0.336,3.656
		c4.483,47.884,46.935,83.066,94.819,78.583c5.097-0.477,10.143-1.403,15.077-2.767c46.306-12.805,73.464-60.725,60.659-107.031
		c-1.038-3.755-2.328-7.435-3.859-11.017C396.167,216.301,369.057,221.533,342.943,216.336L342.943,216.336z"/>
</g>
<g>
	<path style="fill:#F04855;" d="M207.935,164.336c-33.034,36.223-76.455,61.35-124.32,71.944
		c10.073,9.214,22.189,15.907,35.352,19.528c46.356,12.809,94.318-14.387,107.127-60.742c1.366-4.944,2.293-9.999,2.769-15.106
		l0.472-5.176l-3.2-1.944C220.363,169.413,214.267,166.565,207.935,164.336L207.935,164.336z"/>
	<path style="fill:#F04855;" d="M418.447,201.792c-8.076,5.238-16.85,9.31-26.064,12.096c-21.984,58.936-59.824,86.4-94.848,98.84
		c19.661,10.556,42.64,13.104,64.136,7.112c46.303-12.817,73.449-60.744,60.632-107.047
		C421.265,209.044,419.977,205.369,418.447,201.792L418.447,201.792z"/>
</g>
<path d="M14.255,392.336l120,32c2.062,0.56,4.263,0.272,6.112-0.8c1.843-1.082,3.177-2.856,3.704-4.928l0.248-1.048
	c5.283-21.43-7.502-43.16-28.8-48.952l-3.2-0.8l28.344-100.888c0.52,0,1.048,0.104,1.6,0.104
	c49.07-0.043,90.042-37.434,94.56-86.296l0.536-5.776l6.456,69.784c4.564,48.851,45.536,86.217,94.6,86.272
	c0.696,0,1.392-0.128,2.096-0.144l27.688,93.6l-3.048,0.8c-21.31,5.774-34.112,27.506-28.832,48.944
	c0.213,0.878,0.578,1.712,1.08,2.464l0.248,0.384c1.889,2.859,5.389,4.197,8.704,3.328l120-31.392
	c4.241-1.11,6.799-5.427,5.736-9.68c-5.422-21.684-27.397-34.867-49.081-29.445c-0.203,0.051-0.405,0.103-0.607,0.157l-7.8,2.08
	l-27.88-94.376c0.848-0.504,1.704-1.008,2.536-1.528s1.52-0.872,2.24-1.36c2.216-1.48,4.304-3.112,6.4-4.8
	c0.544-0.44,1.128-0.8,1.664-1.272c2.04-1.712,3.96-3.568,5.856-5.448c0.496-0.488,1.032-0.936,1.52-1.44
	c1.816-1.888,3.496-3.896,5.16-5.936c0.48-0.584,1-1.136,1.472-1.736c1.6-2.04,3.016-4.184,4.432-6.352
	c0.448-0.688,0.936-1.336,1.368-2.04c1.376-2.232,2.608-4.56,3.8-6.912c0.288-0.568,0.64-1.096,0.92-1.672
	c0.064-0.136,0.104-0.272,0.168-0.408c0.248-0.52,0.56-1,0.8-1.528c0.944-2.064,1.68-4.192,2.464-6.304
	c0.192-0.52,0.416-1.016,0.6-1.536c1.024-2.896,1.872-5.832,2.6-8.8c0.072-0.272,0.152-0.536,0.216-0.8
	c0.743-3.131,1.325-6.298,1.744-9.488l0.048-0.336c0.416-3.238,0.664-6.496,0.744-9.76v-0.224c0.064-3.203-0.035-6.407-0.296-9.6
	c0-0.168,0-0.336,0-0.496c-0.268-3.107-0.693-6.199-1.272-9.264c-0.048-0.288-0.088-0.576-0.152-0.864
	c-0.576-2.984-1.32-5.936-2.192-8.872c-0.104-0.352-0.2-0.704-0.312-1.048c-0.92-2.958-1.988-5.869-3.2-8.72
	c-0.064-0.168-0.112-0.336-0.176-0.504l-0.064-0.072c-0.544-1.296-0.992-2.616-1.6-3.896L367.439,84.344
	c-1.721-3.35-5.546-5.046-9.184-4.072l-114.976,30.664l5.04-54.2c0.358-3.883-2.136-7.459-5.904-8.464l-120-32
	c-3.638-0.974-7.463,0.722-9.184,4.072L56.399,130.88c-0.24,0.496-0.4,1.024-0.632,1.528l-0.08,0.2
	c-8.578,18.781-10.786,39.849-6.288,60v0.128c0.736,3.286,1.647,6.531,2.728,9.72c0.104,0.312,0.248,0.608,0.36,0.912
	c0.944,2.696,1.928,5.376,3.12,8c0.112,0.24,0.256,0.456,0.368,0.696l0.048,0.128c0.232,0.504,0.536,0.96,0.8,1.456
	c1.264,2.584,2.568,5.128,4.04,7.568c0.384,0.624,0.8,1.2,1.224,1.824c1.456,2.28,2.936,4.544,4.568,6.68
	c0.464,0.608,0.992,1.152,1.464,1.744c1.664,2.072,3.352,4.128,5.176,6.048c0.52,0.552,1.112,1.032,1.648,1.6
	c1.872,1.872,3.752,3.728,5.768,5.432c0.608,0.512,1.272,0.952,1.896,1.448c2.024,1.6,4.064,3.256,6.232,4.72
	c0.8,0.552,1.696,1,2.528,1.528c1.003,0.635,2.016,1.245,3.04,1.832L65.919,355.424l-7.672-2.016
	c-21.597-5.762-43.775,7.075-49.537,28.672c-0.052,0.194-0.102,0.389-0.151,0.584C7.498,386.903,10.034,391.209,14.255,392.336
	L14.255,392.336z M414.199,213.56c4.08,13.809,4.307,28.471,0.656,42.4c-0.104,0.4-0.216,0.8-0.328,1.216
	c-0.533,1.941-1.149,3.869-1.848,5.784c-0.216,0.6-0.464,1.2-0.704,1.8c-0.696,1.792-1.424,3.568-2.264,5.32
	c-0.192,0.4-0.416,0.8-0.616,1.184c-1.072,2.144-2.2,4.248-3.448,6.272c-0.272,0.448-0.592,0.864-0.872,1.304
	c-1.248,1.928-2.536,3.824-3.936,5.6c-0.328,0.424-0.696,0.8-1.032,1.216c-1.432,1.776-2.896,3.512-4.472,5.144
	c-0.36,0.376-0.8,0.704-1.128,1.072c-1.6,1.6-3.256,3.2-5,4.648c-0.416,0.352-0.872,0.648-1.304,0.992
	c-1.744,1.4-3.512,2.776-5.376,4c-0.584,0.392-1.224,0.72-1.824,1.096c-1.76,1.12-3.52,2.224-5.368,3.2
	c-0.552,0.288-1.136,0.512-1.696,0.8c-2.4,1.176-4.672,2.184-6.936,3.08s-4.712,1.728-7.16,2.4
	c-2.256,0.632-4.536,1.072-6.816,1.496s-4.568,0.696-7.072,0.928h-0.072c-1.056,0.096-2.112,0.28-3.2,0.336
	c-17.375,0.87-34.551-4.026-48.856-13.928c-2.378-1.647-4.667-3.42-6.856-5.312c-0.544-0.472-1.016-1-1.544-1.48
	c-1.6-1.448-3.16-2.904-4.616-4.464c-0.704-0.76-1.312-1.6-1.984-2.4c-1.176-1.368-2.4-2.72-3.464-4.168
	c-0.68-0.912-1.264-1.896-1.904-2.832c-0.952-1.4-1.928-2.768-2.784-4.224c-0.616-1.032-1.12-2.128-1.688-3.2
	c-0.76-1.44-1.552-2.848-2.224-4.328c-0.504-1.12-0.904-2.288-1.36-3.432c-0.592-1.496-1.224-2.968-1.728-4.504
	c-0.384-1.168-0.664-2.4-0.992-3.576c-0.432-1.6-0.896-3.104-1.232-4.688c-0.264-1.216-0.408-2.464-0.616-3.704
	c-0.224-1.376-0.464-2.76-0.616-4.16l14.72-8.8c20.024-12.022,43.811-16.143,66.712-11.56
	C366.12,229.135,391.873,225.413,414.199,213.56L414.199,213.56z M426.511,425.408c2.074-0.541,4.209-0.81,6.352-0.8
	c8.291,0.036,16.005,4.246,20.52,11.2l-102.208,26.736c0.817-10.37,8.059-19.11,18.096-21.84l10.984-2.928l30.928-8.248
	L426.511,425.408z M383.663,420.28l-26.968-91.104c2.456-0.456,4.8-0.992,7.112-1.6c2.752-0.76,5.504-1.672,8.28-2.744
	l27.048,91.376L383.663,420.28z M356.151,97.408l52,101.16c-19.358,10.761-41.914,14.283-63.632,9.936
	c-26.803-5.378-54.648-0.554-78.08,13.528l-8.192,4.912l-9.344-100.952L356.151,97.408z M114.167,245.8
	c-2.208-0.864-4.464-1.848-6.808-2.992h-0.04c-0.728-0.36-1.488-0.648-2.208-1.024c-1.824-0.968-3.56-2.08-5.296-3.2
	c-0.656-0.416-1.352-0.8-1.992-1.208c-1.864-1.264-3.624-2.656-5.368-4.072c-0.448-0.36-0.936-0.672-1.376-1.048
	c-1.752-1.48-3.384-3.08-5-4.712c-0.384-0.376-0.8-0.72-1.168-1.112c-1.6-1.664-3.048-3.432-4.48-5.232
	c-0.336-0.424-0.712-0.8-1.048-1.24c-1.408-1.848-2.688-3.792-3.936-5.76c-0.28-0.448-0.608-0.864-0.88-1.32
	c-1.24-2.048-2.352-4.2-3.408-6.4c-0.208-0.416-0.456-0.8-0.648-1.232c-0.632-1.352-1.136-2.736-1.688-4.112
	c-0.432-1.088-0.896-2.176-1.28-3.28c-0.536-1.544-0.984-3.104-1.424-4.672c-0.256-0.928-0.528-1.856-0.752-2.792
	c-0.408-1.696-0.752-3.4-1.048-5.112c-0.136-0.8-0.248-1.544-0.36-2.312c-0.264-1.872-0.488-3.752-0.616-5.6
	c0-0.48-0.04-0.968-0.064-1.448c-0.497-9.474,0.723-18.96,3.6-28l5.896,3.92c24.21,16.245,53.916,22.122,82.488,16.32
	c22.479-4.505,45.83-0.621,65.64,10.92v0.152c-3.927,42.16-40.366,73.745-82.656,71.648c-0.944-0.048-1.88-0.216-2.816-0.296
	c-2.552-0.224-4.944-0.536-7.2-0.928c-2.256-0.392-4.72-0.888-7.048-1.536S116.44,246.656,114.167,245.8L114.167,245.8z
	 M124.487,33.408l107.248,28.584l-9.24,99.864c-21.778-10.846-46.544-14.142-70.4-9.368c-24.413,4.949-49.791-0.072-70.48-13.944
	l-8.344-5.6L124.487,33.408z M109.071,261.008c2.624,1,5.2,1.848,7.76,2.56h0.088c2.4,0.672,4.952,1.248,7.568,1.712l-27.648,98.4
	l-9.912-2.64l-5.544-1.48L109.071,261.008z M35.399,371.408c5.642-3.345,12.396-4.268,18.728-2.56l57.24,15.264
	c10.24,2.778,17.546,11.806,18.128,22.4L27.223,379.24c2.074-3.218,4.874-5.903,8.176-7.84L35.399,371.408z"/>
<path id="SVGCleanerId_0_1_" d="M258.663,34.34l24.002-24.002l11.314,11.314l-24.002,24.002L258.663,34.34z"/>
<path id="SVGCleanerId_1_1_" d="M280.319,56h32v16h-32V56z"/>
<path id="SVGCleanerId_2_1_" d="M224.319,0h16v32h-16V0z"/>
<path id="SVGCleanerId_3_1_" d="M408.319,32.608h16v24h-16V32.608z"/>
<path id="SVGCleanerId_4_1_" d="M384.319,56.608h24v16h-24V56.608z"/>
<path id="SVGCleanerId_5_1_" d="M408.319,72.608h16v24h-16V72.608z"/>
<path id="SVGCleanerId_6_1_" d="M424.319,56.608h24v16h-24V56.608z"/>
<path id="SVGCleanerId_7_1_" d="M40.319,0.608h16v24h-16V0.608z"/>
<path id="SVGCleanerId_8_1_" d="M16.319,24.608h24v16h-24V24.608z"/>
<path id="SVGCleanerId_9_1_" d="M40.319,40.608h16v24h-16V40.608z"/>
<path id="SVGCleanerId_10_1_" d="M56.319,24.608h24v16h-24V24.608z"/>
<g>
</g>
<g>
</g>
<g>
</g>
<g>
</g>
<g>
</g>
<g>
</g>
<g>
</g>
<g>
</g>
<g>
</g>
<g>
</g>
<g>
</g>
<g>
</g>
<g>
</g>
<g>
</g>
<g>
</g>
</svg>
