<?xml version="1.0" encoding="iso-8859-1"?>
<!-- Generator: Adobe Illustrator 19.0.0, SVG Export Plug-In . SVG Version: 6.00 Build 0)  -->
<svg version="1.1" id="Capa_1" xmlns="http://www.w3.org/2000/svg" xmlns:xlink="http://www.w3.org/1999/xlink" x="0px" y="0px"
	 viewBox="0 0 480.646 480.646" style="enable-background:new 0 0 480.646 480.646;" xml:space="preserve">
<g>
	<g>
		<path d="M472.087,439.312c-5.422-21.684-27.397-34.867-49.081-29.445c-0.203,0.051-0.405,0.103-0.607,0.157l-7.8,2.08
			l-27.88-94.376c0.848-0.504,1.704-1.008,2.536-1.528c0.832-0.52,1.52-0.872,2.24-1.36c2.216-1.48,4.304-3.112,6.4-4.8
			c0.544-0.44,1.128-0.8,1.664-1.272c2.04-1.712,3.96-3.568,5.856-5.448c0.496-0.488,1.032-0.936,1.52-1.44
			c1.816-1.888,3.496-3.896,5.16-5.936c0.48-0.584,1-1.136,1.472-1.736c1.6-2.04,3.016-4.184,4.432-6.352
			c0.448-0.688,0.936-1.336,1.368-2.04c1.376-2.232,2.608-4.56,3.8-6.912c0.288-0.568,0.64-1.096,0.92-1.672
			c0.064-0.136,0.104-0.272,0.168-0.408c0.248-0.52,0.56-1,0.8-1.528c0.944-2.064,1.68-4.192,2.464-6.304
			c0.192-0.52,0.416-1.016,0.6-1.536c1.024-2.896,1.872-5.832,2.6-8.8c0.072-0.272,0.152-0.536,0.216-0.8
			c0.743-3.131,1.325-6.298,1.744-9.488l0.048-0.336c0.416-3.238,0.664-6.496,0.744-9.76v-0.224c0.064-3.203-0.035-6.407-0.296-9.6
			c0-0.168,0-0.336,0-0.496c-0.268-3.107-0.693-6.199-1.272-9.264c-0.048-0.288-0.088-0.576-0.152-0.864
			c-0.576-2.984-1.32-5.936-2.192-8.872c-0.104-0.352-0.2-0.704-0.312-1.048c-0.92-2.958-1.988-5.869-3.2-8.72
			c-0.064-0.168-0.112-0.336-0.176-0.504l-0.064-0.072c-0.544-1.296-0.992-2.616-1.6-3.896L367.439,84.344
			c-1.721-3.35-5.546-5.046-9.184-4.072l-114.976,30.664l5.04-54.2c0.358-3.883-2.136-7.459-5.904-8.464l-120-32
			c-3.638-0.974-7.463,0.722-9.184,4.072L56.399,130.88c-0.24,0.496-0.4,1.024-0.632,1.528l-0.08,0.2
			c-8.578,18.781-10.786,39.849-6.288,60v0.128c0.736,3.286,1.647,6.531,2.728,9.72c0.104,0.312,0.248,0.608,0.36,0.912
			c0.944,2.696,1.928,5.376,3.12,8c0.112,0.24,0.256,0.456,0.368,0.696l0.048,0.128c0.232,0.504,0.536,0.96,0.8,1.456
			c1.264,2.584,2.568,5.128,4.04,7.568c0.384,0.624,0.8,1.2,1.224,1.824c1.456,2.28,2.936,4.544,4.568,6.68
			c0.464,0.608,0.992,1.152,1.464,1.744c1.664,2.072,3.352,4.128,5.176,6.048c0.52,0.552,1.112,1.032,1.648,1.6
			c1.872,1.872,3.752,3.728,5.768,5.432c0.608,0.512,1.272,0.952,1.896,1.448c2.024,1.6,4.064,3.256,6.232,4.72
			c0.8,0.552,1.696,1,2.528,1.528c1.003,0.635,2.016,1.245,3.04,1.832L65.919,355.424l-7.672-2.016
			c-21.597-5.762-43.775,7.075-49.537,28.672c-0.052,0.194-0.102,0.389-0.151,0.584c-1.061,4.239,1.475,8.544,5.696,9.672l120,32
			c2.062,0.56,4.263,0.272,6.112-0.8c1.843-1.082,3.177-2.856,3.704-4.928l0.248-1.048c5.283-21.43-7.502-43.16-28.8-48.952
			l-3.2-0.8l28.344-100.888c0.52,0,1.048,0.104,1.6,0.104c49.07-0.044,90.042-37.434,94.56-86.296l0.536-5.776l6.456,69.784
			c4.564,48.851,45.536,86.216,94.6,86.272c0.696,0,1.392-0.128,2.096-0.144l27.688,93.6l-3.048,0.8
			c-21.31,5.774-34.112,27.506-28.832,48.944c0.213,0.878,0.578,1.712,1.08,2.464l0.248,0.384c1.889,2.859,5.389,4.197,8.704,3.328
			l120-31.392C470.593,447.882,473.151,443.565,472.087,439.312z M129.495,406.512L27.223,379.24
			c2.074-3.218,4.874-5.903,8.176-7.84v0.008c5.642-3.345,12.396-4.268,18.728-2.56l57.24,15.264
			C121.607,386.89,128.914,395.918,129.495,406.512z M96.839,363.68l-9.912-2.64l-5.544-1.48l27.688-98.552
			c2.624,1,5.2,1.848,7.76,2.56h0.088c2.4,0.672,4.952,1.248,7.568,1.712L96.839,363.68z M220.903,179.232
			c-3.927,42.16-40.366,73.745-82.656,71.648c-0.944-0.048-1.88-0.216-2.816-0.296c-2.552-0.224-4.944-0.536-7.2-0.928
			c-2.256-0.392-4.72-0.888-7.048-1.536s-4.744-1.464-7.016-2.32c-2.208-0.864-4.464-1.848-6.808-2.992h-0.04
			c-0.728-0.36-1.488-0.648-2.208-1.024c-1.824-0.968-3.56-2.08-5.296-3.2c-0.656-0.416-1.352-0.8-1.992-1.208
			c-1.864-1.264-3.624-2.656-5.368-4.072c-0.448-0.36-0.936-0.672-1.376-1.048c-1.752-1.48-3.384-3.08-5-4.712
			c-0.384-0.376-0.8-0.72-1.168-1.112c-1.6-1.664-3.048-3.432-4.48-5.232c-0.336-0.424-0.712-0.8-1.048-1.24
			c-1.408-1.848-2.688-3.792-3.936-5.76c-0.28-0.448-0.608-0.864-0.88-1.32c-1.24-2.048-2.352-4.2-3.408-6.4
			c-0.208-0.416-0.456-0.8-0.648-1.232c-0.632-1.352-1.136-2.736-1.688-4.112c-0.432-1.088-0.896-2.176-1.28-3.28
			c-0.536-1.544-0.984-3.104-1.424-4.672c-0.256-0.928-0.528-1.856-0.752-2.792c-0.408-1.696-0.752-3.4-1.048-5.112
			c-0.136-0.8-0.248-1.544-0.36-2.312c-0.264-1.872-0.488-3.752-0.616-5.6c0-0.48-0.04-0.968-0.064-1.448
			c-0.497-9.474,0.723-18.96,3.6-28l5.896,3.92c24.21,16.245,53.916,22.122,82.488,16.32c22.479-4.505,45.83-0.621,65.64,10.92
			V179.232z M222.495,161.856c-21.778-10.846-46.544-14.141-70.4-9.368c-24.413,4.949-49.791-0.072-70.48-13.944l-8.344-5.6
			l51.216-99.536l107.248,28.584L222.495,161.856z M248.903,125.992l107.248-28.584l52,101.16
			c-19.358,10.761-41.914,14.283-63.632,9.936c-26.803-5.378-54.648-0.554-78.08,13.528l-8.192,4.912L248.903,125.992z
			 M345.655,314.512h-0.072c-1.056,0.096-2.112,0.28-3.2,0.336c-17.375,0.87-34.551-4.026-48.856-13.928
			c-2.378-1.647-4.667-3.42-6.856-5.312c-0.544-0.472-1.016-1-1.544-1.48c-1.6-1.448-3.16-2.904-4.616-4.464
			c-0.704-0.76-1.312-1.6-1.984-2.4c-1.176-1.368-2.4-2.72-3.464-4.168c-0.68-0.912-1.264-1.896-1.904-2.832
			c-0.952-1.4-1.928-2.768-2.784-4.224c-0.616-1.032-1.12-2.128-1.688-3.2c-0.76-1.44-1.552-2.848-2.224-4.328
			c-0.504-1.12-0.904-2.288-1.36-3.432c-0.592-1.496-1.224-2.968-1.728-4.504c-0.384-1.168-0.664-2.4-0.992-3.576
			c-0.432-1.6-0.896-3.104-1.232-4.688c-0.264-1.216-0.408-2.464-0.616-3.704c-0.224-1.376-0.464-2.76-0.616-4.16l14.72-8.8
			c20.024-12.022,43.811-16.143,66.712-11.56c24.769,5.047,50.522,1.325,72.848-10.528c4.08,13.809,4.307,28.471,0.656,42.4
			c-0.104,0.4-0.216,0.8-0.328,1.216c-0.533,1.941-1.149,3.869-1.848,5.784c-0.216,0.6-0.464,1.2-0.704,1.8
			c-0.696,1.792-1.424,3.568-2.264,5.32c-0.192,0.4-0.416,0.8-0.616,1.184c-1.072,2.144-2.2,4.248-3.448,6.272
			c-0.272,0.448-0.592,0.864-0.872,1.304c-1.248,1.928-2.536,3.824-3.936,5.6c-0.328,0.424-0.696,0.8-1.032,1.216
			c-1.432,1.776-2.896,3.512-4.472,5.144c-0.36,0.376-0.8,0.704-1.128,1.072c-1.6,1.6-3.256,3.2-5,4.648
			c-0.416,0.352-0.872,0.648-1.304,0.992c-1.744,1.4-3.512,2.776-5.376,4c-0.584,0.392-1.224,0.72-1.824,1.096
			c-1.76,1.12-3.52,2.224-5.368,3.2c-0.552,0.288-1.136,0.512-1.696,0.8c-2.4,1.176-4.672,2.184-6.936,3.08
			c-2.264,0.896-4.712,1.728-7.16,2.4c-2.256,0.632-4.536,1.072-6.816,1.496C350.447,314.008,348.159,314.28,345.655,314.512z
			 M356.695,329.176c2.456-0.456,4.8-0.992,7.112-1.6c2.752-0.76,5.504-1.672,8.28-2.744l27.048,91.376l-15.472,4.072
			L356.695,329.176z M351.175,462.544c0.817-10.37,8.059-19.109,18.096-21.84l10.984-2.928l30.928-8.248l15.328-4.12
			c2.074-0.541,4.209-0.81,6.352-0.8c8.291,0.036,16.005,4.246,20.52,11.2L351.175,462.544z"/>
	</g>
</g>
<g>
	<g>
		<rect x="259.349" y="19.996" transform="matrix(0.7071 -0.7071 0.7071 0.7071 61.1365 203.5885)" width="33.944" height="16"/>
	</g>
</g>
<g>
	<g>
		<rect x="280.319" y="56" width="32" height="16"/>
	</g>
</g>
<g>
	<g>
		<rect x="224.319" width="16" height="32"/>
	</g>
</g>
<g>
	<g>
		<rect x="408.319" y="32.608" width="16" height="24"/>
	</g>
</g>
<g>
	<g>
		<rect x="384.319" y="56.608" width="24" height="16"/>
	</g>
</g>
<g>
	<g>
		<rect x="408.319" y="72.608" width="16" height="24"/>
	</g>
</g>
<g>
	<g>
		<rect x="424.319" y="56.608" width="24" height="16"/>
	</g>
</g>
<g>
	<g>
		<rect x="40.319" y="0.608" width="16" height="24"/>
	</g>
</g>
<g>
	<g>
		<rect x="16.319" y="24.608" width="24" height="16"/>
	</g>
</g>
<g>
	<g>
		<rect x="40.319" y="40.608" width="16" height="24"/>
	</g>
</g>
<g>
	<g>
		<rect x="56.319" y="24.608" width="24" height="16"/>
	</g>
</g>
<g>
</g>
<g>
</g>
<g>
</g>
<g>
</g>
<g>
</g>
<g>
</g>
<g>
</g>
<g>
</g>
<g>
</g>
<g>
</g>
<g>
</g>
<g>
</g>
<g>
</g>
<g>
</g>
<g>
</g>
</svg>
