<?xml version="1.0" encoding="iso-8859-1"?>
<!-- Generator: Adobe Illustrator 19.0.0, SVG Export Plug-In . SVG Version: 6.00 Build 0)  -->
<svg version="1.1" id="Capa_1" xmlns="http://www.w3.org/2000/svg" xmlns:xlink="http://www.w3.org/1999/xlink" x="0px" y="0px"
	 viewBox="0 0 480 480" style="enable-background:new 0 0 480 480;" xml:space="preserve">
<path style="fill:#FEC9A3;" d="M392,192v-56c0-17.673-14.327-32-32-32H254.4c-13.456,0.001-25.474,8.419-30.072,21.064L200,192v32
	h32l24-80h8l8,48h80l32,96h32L392,192z"/>
<path style="fill:#FFF3C9;" d="M376,104H248l21.88-65.6C275.909,20.254,292.879,8.006,312,8c19.121,0.006,36.091,12.254,42.12,30.4
	L376,104z"/>
<path style="fill:#408fc4;" d="M104,264v32v160l-16,16h128l-16-24V296v-32H104z"/>
<path style="fill:#408fc4;" d="M200,316.2c-28.699,31.761-60.905,60.169-96,84.68V456l-16,16h128l-16-24V316.2z"/>
<path style="fill:#FEC9A3;" d="M152,8L152,8c22.091,0,40,17.909,40,40v16c0,22.091-17.909,40-40,40l0,0c-22.091,0-40-17.909-40-40
	V48C112,25.909,129.909,8,152,8z"/>
<path style="fill:#484A4D;" d="M144,296h16v176h-16V296z"/>
<path style="fill:#A15D30;" d="M192,40l-32-16l-48,16c0-17.673,14.327-32,32-32h16C177.673,8,192,22.327,192,40z"/>
<path style="fill:#FEC9A3;" d="M64,264h40v32H64V264z"/>
<path style="fill:#787D82;" d="M200,104h-96c-22.091,0-40,17.909-40,40v120h176V144C240,121.909,222.091,104,200,104z"/>
<path style="fill:#FEC9A3;" d="M200,264h40v32h-40V264z"/>
<g>
	<path style="fill:#484A4D;" d="M96,152h16v112H96V152z"/>
	<path style="fill:#484A4D;" d="M192,152h16v112h-16V152z"/>
	<g>
		<path id="SVGCleanerId_2" style="fill:#484A4D;" d="M144,160h16v16h-16V160z"/>
	</g>
	<g>
		<path id="SVGCleanerId_4" style="fill:#484A4D;" d="M144,192h16v16h-16V192z"/>
	</g>
	<g>
		<path id="SVGCleanerId_3" style="fill:#484A4D;" d="M144,224h16v16h-16V224z"/>
	</g>
</g>
<path style="fill:#FEC9A3;" d="M312,8L312,8c22.091,0,40,17.909,40,40v16c0,22.091-17.909,40-40,40l0,0c-22.091,0-40-17.909-40-40
	V48C272,25.909,289.909,8,312,8z"/>
<path style="fill:#FFF3C9;" d="M392,472H232v-78.56c0.001-58.819,13.696-116.83,40-169.44h80c26.304,52.61,39.999,110.621,40,169.44
	V472z"/>
<path style="fill:#FFEAB8;" d="M232,409.96V472h160v-78.56c-0.038-49.345-9.718-98.207-28.496-143.84
	C329.482,310.399,284.96,364.691,232,409.96L232,409.96z"/>
<path style="fill:#FFDDA6;" d="M272,192h80v32h-80V192z"/>
<path style="fill:#FFF3C9;" d="M272.8,138.128l4-2.68c6.492-4.328,15.136-3.474,20.656,2.04L312,152l20.64-15.48
	c6.518-4.887,15.638-4.239,21.4,1.52c3.743,3.738,5.448,9.055,4.576,14.272L352,192h-80l-6.256-37.56
	C264.68,148.088,267.442,141.702,272.8,138.128L272.8,138.128z"/>
<path style="fill:#FEC9A3;" d="M208,192h64v32h-64V192z"/>
<path style="fill:#A15D30;" d="M272,48l48-16l32,16c0-22.091-17.909-40-40-40S272,25.909,272,48z"/>
<g>
	<g>
		<path id="SVGCleanerId_0" style="fill:#FFDDA6;" d="M304,432h16v16h-16V432z"/>
	</g>
	<path style="fill:#FFDDA6;" d="M264,432h16v16h-16V432z"/>
	<g>
		<path id="SVGCleanerId_1" style="fill:#FFDDA6;" d="M344,432h16v16h-16V432z"/>
	</g>
</g>
<path style="fill:#FFF3C9;" d="M128,104l24,24l24-24H128z"/>
<path style="fill:#484A4D;" d="M128,104v40l24-16l24,16v-40l-24,16L128,104z"/>
<g>
	<path id="SVGCleanerId_2_1_" d="M144,160h16v16h-16V160z"/>
</g>
<path d="M144,192h16v16h-16V192z"/>
<g>
	<path id="SVGCleanerId_3_1_" d="M144,224h16v16h-16V224z"/>
</g>
<g>
	<path id="SVGCleanerId_0_1_" d="M304,432h16v16h-16V432z"/>
</g>
<path d="M264,432h16v16h-16V432z"/>
<g>
	<path id="SVGCleanerId_1_1_" d="M344,432h16v16h-16V432z"/>
</g>
<g>
	<path id="SVGCleanerId_2_2_" d="M144,160h16v16h-16V160z"/>
</g>
<path id="SVGCleanerId_4_1_" d="M144,192h16v16h-16V192z"/>
<g>
	<path id="SVGCleanerId_3_2_" d="M144,224h16v16h-16V224z"/>
</g>
<g>
	<path id="SVGCleanerId_0_2_" d="M304,432h16v16h-16V432z"/>
</g>
<path d="M264,432h16v16h-16V432z"/>
<g>
	<path id="SVGCleanerId_1_2_" d="M344,432h16v16h-16V432z"/>
</g>
<path d="M423.76,286.056L400,191.016V136c-0.032-12.713-6.128-24.649-16.408-32.128l-21.88-68
	c-5.982-17.917-21.169-31.211-39.72-34.768c-0.128,0-0.256-0.072-0.392-0.096c-0.928-0.176-1.856-0.304-2.792-0.424
	c-4.504-0.724-9.096-0.724-13.6,0c-0.936,0.12-1.864,0.248-2.792,0.424c-0.136,0-0.264,0.064-0.392,0.096
	c-18.552,3.553-33.738,16.849-39.712,34.768l-20.8,62.4c-4.737,1.627-9.13,4.123-12.952,7.36C220.349,99.386,210.317,96.003,200,96
	h-12.32c7.927-8.773,12.317-20.176,12.32-32V48c-0.009-1.907-0.132-3.812-0.368-5.704c0.236-0.743,0.36-1.517,0.368-2.296
	c-0.026-22.08-17.92-39.974-40-40h-16c-22.08,0.026-39.974,17.92-40,40c0.012,0.774,0.139,1.543,0.376,2.28
	c-0.239,1.898-0.364,3.808-0.376,5.72v16c0.003,11.824,4.393,23.227,12.32,32H104c-26.499,0.026-47.974,21.501-48,48v152
	c0,4.418,3.582,8,8,8h32v148.688l-13.656,13.656c-3.124,3.125-3.123,8.19,0.002,11.314C83.846,479.157,85.879,480,88,480h128
	c4.418,0.001,8.001-3.581,8.001-7.999c0-1.581-0.468-3.126-1.345-4.441L208,445.6V304h26.552
	c-6.983,29.302-10.524,59.318-10.552,89.44V472c0,4.418,3.582,8,8,8h160c4.418,0,8-3.582,8-8v-78.56
	c-0.08-32.887-4.343-65.63-12.688-97.44H416c4.418,0,8-3.582,8-8C424,287.344,423.919,286.692,423.76,286.056L423.76,286.056z
	 M364.392,96.456c-1.454-0.237-2.92-0.39-4.392-0.456h-12.32c4.893-5.437,8.475-11.923,10.472-18.96L364.392,96.456z M280,64V53.768
	l39.384-13.128L344,52.944V64c0,17.673-14.327,32-32,32S280,81.673,280,64z M317.752,16.584c0.504,0.088,1.008,0.208,1.504,0.32
	c1.529,0.354,3.029,0.822,4.488,1.4c0.304,0.12,0.624,0.2,0.92,0.336c1.672,0.726,3.278,1.596,4.8,2.6
	c0.376,0.248,0.736,0.528,1.104,0.8c1.193,0.856,2.326,1.791,3.392,2.8c0.32,0.304,0.648,0.584,0.952,0.896
	c1.268,1.297,2.425,2.699,3.456,4.192c0.192,0.272,0.336,0.568,0.512,0.8c0.488,0.8,0.872,1.6,1.296,2.4l-16.6-8.288
	c-1.899-0.94-4.091-1.095-6.104-0.432L282.344,36.12c0-0.096,0.048-0.192,0.088-0.288c0.168-0.408,0.392-0.8,0.576-1.184
	c0.601-1.31,1.29-2.577,2.064-3.792c0.328-0.512,0.68-1.008,1.032-1.504c0.792-1.089,1.65-2.128,2.568-3.112
	c0.368-0.392,0.704-0.8,1.088-1.168c1.314-1.289,2.735-2.464,4.248-3.512c0.224-0.152,0.48-0.264,0.712-0.416
	c1.341-0.86,2.742-1.622,4.192-2.28c0.536-0.24,1.088-0.44,1.64-0.656c1.282-0.491,2.594-0.9,3.928-1.224
	c0.56-0.136,1.12-0.288,1.688-0.392c3.821-0.785,7.763-0.785,11.584,0V16.584z M265.664,76.32c1.949,7.309,5.6,14.053,10.656,19.68
	h-17.224L265.664,76.32z M240,200h24v16h-56v-16H240z M208,232h24v24h-24V232z M248,232h11.472c-4.144,9.04-8,18.208-11.472,27.544
	V232z M280,200h64v16h-64V200z M350.728,150.976L345.224,184h-66.4l-5.224-30.88c-0.54-3.246,0.875-6.507,3.616-8.328l4-2.68
	c3.325-2.204,7.741-1.766,10.568,1.048l14.512,14.504c2.824,2.84,7.312,3.154,10.504,0.736l20.64-15.48
	c3.702-2.774,8.952-2.021,11.725,1.682C350.532,146.425,351.096,148.727,350.728,150.976z M168,118.952v10.096L160.424,124
	L168,118.952z M143.576,124L136,129.048v-10.096L143.576,124z M152,16c1.726,0.035,3.446,0.209,5.144,0.52l-28.208,9.4
	C134.942,19.595,143.278,16.01,152,16z M120,64V48c0-0.8,0.176-1.536,0.232-2.312l39.152-13.048l24.288,12.16
	c0.166,1.06,0.275,2.128,0.328,3.2v16c0,17.673-14.327,32-32,32S120,81.673,120,64z M72,144c0-17.673,14.327-32,32-32h16v32
	c-0.001,4.418,3.581,8.001,7.999,8.001c1.581,0,3.126-0.468,4.441-1.345L152,137.6l19.56,13.04
	c3.675,2.452,8.643,1.461,11.095-2.215c0.874-1.31,1.342-2.85,1.345-4.425v-32h16c17.617,0.135,31.865,14.383,32,32v40h-24v-32h-16
	v104h-80V152H96v104H72V144z M72,288v-16h24v16H72z M160,464V296h-16v168h-36.688l2.344-2.344c1.5-1.5,2.344-3.534,2.344-5.656V272
	h80v176c0.003,1.58,0.47,3.124,1.344,4.44l7.712,11.56H160z M232,288h-24v-16h24V288z M384,464H240v-70.56
	c0.069-55.905,12.709-111.08,36.984-161.44h70.032c24.275,50.36,36.915,105.535,36.984,161.44V464z M389.768,280l-29.552-88.648
	l2.592-15.552l3.696-22.176l1.376-8.288c0.079-0.441,0.119-0.888,0.12-1.336c-0.043-3.155-1.953-5.983-4.864-7.2
	c-7.017-11.412-21.956-14.975-33.367-7.958c-0.664,0.408-1.307,0.848-1.929,1.318l-15.088,11.28l-9.6-9.6
	c-8.233-8.19-21.091-9.46-30.768-3.04l-4,2.688c-1.887,1.262-3.586,2.784-5.048,4.52H256c-3.534,0-6.65,2.319-7.664,5.704
	l-0.336,1.16c-0.069-2.503-0.336-4.996-0.8-7.456c-0.112-0.632-0.312-1.24-0.456-1.864c-0.458-2.05-1.051-4.068-1.776-6.04
	c-0.296-0.8-0.624-1.6-0.968-2.4c-0.825-1.898-1.774-3.739-2.84-5.512c-0.352-0.584-0.656-1.192-1.032-1.768
	c-0.16-0.248-0.272-0.512-0.44-0.752c4.207-3.275,9.381-5.061,14.712-5.08H360c13.255,0,24,10.745,24,24v56
	c0,0.655,0.081,1.308,0.24,1.944L405.752,280L389.768,280z"/>
<g>
</g>
<g>
</g>
<g>
</g>
<g>
</g>
<g>
</g>
<g>
</g>
<g>
</g>
<g>
</g>
<g>
</g>
<g>
</g>
<g>
</g>
<g>
</g>
<g>
</g>
<g>
</g>
<g>
</g>
</svg>
