<?xml version="1.0" encoding="iso-8859-1"?>
<!-- Generator: Adobe Illustrator 19.0.0, SVG Export Plug-In . SVG Version: 6.00 Build 0)  -->
<svg version="1.1" id="Capa_1" xmlns="http://www.w3.org/2000/svg" xmlns:xlink="http://www.w3.org/1999/xlink" x="0px" y="0px"
	 viewBox="0 0 479.976 479.976" style="enable-background:new 0 0 479.976 479.976;" xml:space="preserve">
<g>
	<path style="fill:#FDCD74;" d="M60,7.976h288v400H60V7.976z"/>
	<path style="fill:#FDCD74;" d="M60,7.976l169.408,200L60,407.976L60,7.976z"/>
	<path style="fill:#FDCD74;" d="M348,7.976l-169.408,200l169.408,200V7.976z"/>
</g>
<path style="fill:#FDC05E;" d="M116,55.976h232v352H116V55.976z"/>
<path style="fill:#FFF3C9;" d="M132,71.976h288v400H132V71.976z"/>
<path style="fill:#FC88A1;" d="M276,247.976l-65.088-65.088c-12.654-12.652-12.656-33.167-0.003-45.821
	c0.001-0.001,0.002-0.002,0.003-0.003c12.653-12.653,33.168-12.653,45.821,0c0.692,0.692,1.353,1.416,1.979,2.168L276,159.976
	l17.288-20.744c11.456-13.746,31.886-15.603,45.632-4.147c0.752,0.627,1.475,1.287,2.168,1.979
	c12.654,12.652,12.656,33.167,0.003,45.821c-0.001,0.001-0.002,0.002-0.003,0.003L276,247.976z"/>
<g>
	<path style="fill:#FC5B68;" d="M204,255.976h144v32H204V255.976z"/>
	<path style="fill:#FC5B68;" d="M220,255.976h-56l16-16l-16-16h56V255.976z"/>
	<path style="fill:#FC5B68;" d="M332,255.976h56l-16-16l16-16h-56V255.976z"/>
</g>
<g>
	<g>
		<path id="SVGCleanerId_0" style="fill:#FFDDA6;" d="M196,351.976h80v16h-80V351.976z"/>
	</g>
	<g>
		<path id="SVGCleanerId_1" style="fill:#FFDDA6;" d="M292,351.976h16v16h-16V351.976z"/>
	</g>
	<g>
		<path id="SVGCleanerId_2" style="fill:#FFDDA6;" d="M324,351.976h32v16h-32V351.976z"/>
	</g>
	<g>
		<path id="SVGCleanerId_3" style="fill:#FFDDA6;" d="M212,383.976h128v16H212V383.976z"/>
	</g>
	<g>
		<path id="SVGCleanerId_4" style="fill:#FFDDA6;" d="M228,415.976h56v16h-56V415.976z"/>
	</g>
	<g>
		<path id="SVGCleanerId_5" style="fill:#FFDDA6;" d="M300,415.976h24v16h-24V415.976z"/>
	</g>
	<g>
		<path id="SVGCleanerId_6" style="fill:#FFDDA6;" d="M228,319.976h96v16h-96V319.976z"/>
	</g>
</g>
<path id="SVGCleanerId_0_1_" d="M196,351.976h80v16h-80V351.976z"/>
<path id="SVGCleanerId_1_1_" d="M292,351.976h16v16h-16V351.976z"/>
<path id="SVGCleanerId_2_1_" d="M324,351.976h32v16h-32V351.976z"/>
<path id="SVGCleanerId_3_1_" d="M212,383.976h128v16H212V383.976z"/>
<path id="SVGCleanerId_4_1_" d="M228,415.976h56v16h-56V415.976z"/>
<path id="SVGCleanerId_5_1_" d="M300,415.976h24v16h-24V415.976z"/>
<path d="M346.744,188.544c15.866-15.688,16.011-41.267,0.323-57.133s-41.267-16.011-57.133-0.323
	c-0.981,0.97-1.912,1.99-2.789,3.056L276,147.48l-11.144-13.368c-14.178-17.228-39.638-19.701-56.867-5.523
	s-19.701,39.638-5.523,56.867c0.877,1.066,1.808,2.086,2.789,3.056l59.432,59.464H228v-24c0-4.418-3.582-8-8-8h-56
	c-4.418,0.001-7.999,3.583-7.998,8.002c0,2.121,0.843,4.155,2.342,5.654l10.344,10.344l-10.344,10.344
	c-3.124,3.125-3.123,8.19,0.002,11.314c1.5,1.499,3.534,2.342,5.654,2.342h32v24c0,4.418,3.582,8,8,8h144c4.418,0,8-3.582,8-8v-24
	h32c4.418-0.001,7.999-3.583,7.998-8.002c0-2.121-0.843-4.154-2.342-5.654l-10.344-10.344l10.344-10.344
	c3.124-3.125,3.123-8.19-0.002-11.314c-1.5-1.499-3.534-2.342-5.654-2.342h-56c-4.418,0-8,3.582-8,8v24h-36.688L346.744,188.544z
	 M216.568,142.72c4.546-4.592,10.746-7.166,17.208-7.144c0.384,0,0.768,0,1.152,0c6.843,0.288,13.241,3.47,17.6,8.752l17.288,20.744
	c3.052,3.393,8.278,3.67,11.671,0.617c0.216-0.195,0.423-0.401,0.617-0.617l17.288-20.744c8.643-10.345,24.035-11.725,34.38-3.082
	c0.562,0.469,1.102,0.964,1.62,1.482c9.51,9.539,9.51,24.973,0,34.512L276,236.664l-59.432-59.432
	C207.058,167.693,207.058,152.259,216.568,142.72z M185.656,234.32l-2.344-2.344H212v16h-28.688l2.344-2.344
	C188.779,242.508,188.779,237.444,185.656,234.32L185.656,234.32z M340,279.976H212v-16h128V279.976z M340,231.976h28.688
	l-2.344,2.344c-3.123,3.124-3.123,8.188,0,11.312l2.344,2.344H340V231.976z"/>
<path id="SVGCleanerId_6_1_" d="M228,319.976h96v16h-96V319.976z"/>
<path d="M52.288,409.816c0.077,0.348,0.179,0.69,0.304,1.024c0.064,0.16,0.072,0.336,0.152,0.496s0.28,0.408,0.4,0.624
	c0.174,0.316,0.372,0.618,0.592,0.904c0.271,0.335,0.568,0.648,0.888,0.936c0.25,0.241,0.517,0.463,0.8,0.664
	c0.384,0.261,0.791,0.486,1.216,0.672c0.216,0.104,0.4,0.264,0.632,0.352c0.072,0,0.144,0,0.216,0.04
	c0.808,0.284,1.656,0.435,2.512,0.448h64v56c0,4.418,3.582,8,8,8h288c4.418,0,8-3.582,8-8v-400c0-4.418-3.582-8-8-8h-64v-56
	c0-0.184-0.072-0.344-0.08-0.528c-0.034-0.442-0.104-0.881-0.208-1.312c-0.077-0.348-0.179-0.69-0.304-1.024
	c-0.064-0.16-0.072-0.336-0.152-0.496s-0.28-0.408-0.4-0.624c-0.174-0.316-0.372-0.618-0.592-0.904
	c-0.271-0.335-0.568-0.648-0.888-0.936c-0.25-0.241-0.517-0.463-0.8-0.664c-0.384-0.261-0.791-0.486-1.216-0.672
	c-0.216-0.104-0.4-0.264-0.632-0.352c-0.08,0-0.16,0-0.24-0.048c-0.455-0.134-0.921-0.228-1.392-0.28
	c-0.32,0-0.632-0.128-0.944-0.136c-0.064,0-0.112,0-0.176,0H60h-0.192c-0.295,0.027-0.589,0.07-0.88,0.128
	c-0.49,0.056-0.974,0.152-1.448,0.288c-0.072,0-0.16,0-0.232,0.048c-0.232,0.088-0.416,0.248-0.632,0.352
	c-0.425,0.186-0.832,0.411-1.216,0.672c-0.283,0.201-0.55,0.423-0.8,0.664c-0.32,0.288-0.617,0.601-0.888,0.936
	c-0.22,0.286-0.418,0.588-0.592,0.904c-0.12,0.216-0.296,0.392-0.4,0.624s-0.088,0.336-0.152,0.496
	c-0.125,0.334-0.227,0.676-0.304,1.024c-0.104,0.431-0.174,0.87-0.208,1.312c0,0.184-0.08,0.344-0.08,0.528v400
	c0,0.184,0.072,0.344,0.08,0.528C52.098,408.947,52.176,409.386,52.288,409.816L52.288,409.816z M290.08,63.976H132
	c-1.038,0.003-2.065,0.21-3.024,0.608c-0.292,0.156-0.573,0.332-0.84,0.528c-0.593,0.298-1.147,0.669-1.648,1.104
	c-0.255,0.296-0.49,0.609-0.704,0.936c-0.389,0.453-0.725,0.95-1,1.48c-0.15,0.401-0.27,0.813-0.36,1.232
	c-0.165,0.434-0.294,0.881-0.384,1.336L77.264,15.976h253.472L290.08,63.976z M124,95.912V320.04l-56,66.112V29.8L124,95.912z
	 M77.264,399.976l46.736-55.2v55.2H77.264z M412,463.976H140v-384h272V463.976z M311.048,63.976L340,29.8v34.176H311.048z"/>
<g>
</g>
<g>
</g>
<g>
</g>
<g>
</g>
<g>
</g>
<g>
</g>
<g>
</g>
<g>
</g>
<g>
</g>
<g>
</g>
<g>
</g>
<g>
</g>
<g>
</g>
<g>
</g>
<g>
</g>
</svg>
