<?xml version="1.0" encoding="iso-8859-1"?>
<!-- Generator: Adobe Illustrator 19.0.0, SVG Export Plug-In . SVG Version: 6.00 Build 0)  -->
<svg version="1.1" id="Capa_1" xmlns="http://www.w3.org/2000/svg" xmlns:xlink="http://www.w3.org/1999/xlink" x="0px" y="0px" fill="rgb(255, 255, 255)"
	 viewBox="0 0 480 480" style="enable-background:new 0 0 480 480;" xml:space="preserve">
<g>
	<g>
		<path d="M233.224,192l6.696-46.864l-15.84-2.272l-8,56c-0.627,4.373,2.409,8.427,6.783,9.055C223.24,207.973,223.62,208,224,208
			h24v-16H233.224z"/>
	</g>
</g>
<g>
	<g>
		<path d="M268.424,216.88c-9.42,4.679-19.794,7.116-30.312,7.12H216v16h22.112c13-0.005,25.822-3.017,37.464-8.8L268.424,216.88z"
			/>
	</g>
</g>
<g>
	<g>
		<circle cx="192" cy="152" r="16"/>
	</g>
</g>
<g>
	<g>
		<circle cx="288" cy="152" r="16"/>
	</g>
</g>
<g>
	<g>
		<path d="M373.6,319.152c-0.168-0.048-0.352-0.088-0.528-0.12L296,305.304v-27.792c22.725-23.406,36.646-53.957,39.4-86.464
			c14.39-3.42,24.561-16.257,24.6-31.048c-0.023-7.155-2.474-14.091-6.952-19.672l1.056-20.064
			C356.425,72.831,329.33,28.857,285.92,9.6C271.449,3.236,255.808-0.034,240,0H128c-4.418,0-8,3.582-8,8
			c-0.019,15.185,4.321,30.056,12.504,42.848c-17.217,26.018-20.937,58.706-10.008,87.928l1.952,5.2
			c-2.885,4.849-4.42,10.382-4.448,16.024c0.039,14.791,10.21,27.628,24.6,31.048c2.752,32.505,16.674,63.054,39.4,86.456v27.8
			l-77.6,13.848C81.547,325.497,64.117,347.83,64,373.48V472c0,4.418,3.582,8,8,8h336c4.418,0,8-3.582,8-8v-98.52
			C416.031,347.779,398.539,325.366,373.6,319.152z M339.338,171.276c-0.994,1.001-2.117,1.866-3.338,2.573v-27.632
			c0.104,0.064,0.216,0.104,0.32,0.168c1.064,0.64,2.052,1.4,2.944,2.264C345.533,154.876,345.566,165.007,339.338,171.276z
			 M144,173.848c-4.948-2.857-7.997-8.135-8-13.848c0.013-3.576,1.237-7.041,3.472-9.832c0-0.048,0.104-0.064,0.136-0.104
			c0.032-0.04,0.536-0.672,0.56-0.72c0.177-0.241,0.367-0.474,0.568-0.696c0.892-0.864,1.88-1.624,2.944-2.264
			c0.104-0.064,0.216-0.104,0.32-0.168V173.848z M151.608,74.88c-0.552,1.312-1.056,2.624-1.544,3.952
			c-0.8,2.256-1.6,4.528-2.224,6.84c-0.376,1.336-0.8,2.656-1.088,4c-0.6,2.496-1.048,5.016-1.448,7.552
			c-0.184,1.184-0.424,2.344-0.568,3.536c-0.466,3.729-0.712,7.482-0.736,11.24v17.008c-0.504,0.128-0.952,0.408-1.448,0.56
			c-1.507,0.461-2.978,1.033-4.4,1.712c-0.384,0.184-0.8,0.264-1.192,0.464c-7.939-22.357-5.755-47.063,5.984-67.68l0.672,0.672
			c2.562,2.506,5.293,4.831,8.176,6.96c0.28,0.208,0.496,0.456,0.8,0.664C152.224,73.16,151.96,74.048,151.608,74.88z M148.92,46.36
			c-0.12-0.152-0.224-0.272-0.344-0.432l-0.096-0.08c-6.5-8.75-10.629-19.032-11.984-29.848H240
			c13.593-0.031,27.043,2.779,39.488,8.248c37.347,16.559,60.65,54.397,58.632,95.2l-0.52,10.016
			c-0.472-0.152-0.984-0.168-1.464-0.296c-1.258-0.327-2.535-0.578-3.824-0.752c-0.44-0.056-0.856-0.216-1.304-0.256
			c-0.44-0.344-0.872-0.688-1.312-1.072c-0.56-0.504-1.112-1.016-1.664-1.6s-1.28-1.408-1.912-2.176c-0.536-0.64-1.072-1.288-1.6-2
			c-0.632-0.856-1.256-1.8-1.88-2.76c-0.504-0.8-1.008-1.52-1.496-2.352c-0.632-1.064-1.24-2.216-1.848-3.368
			c-0.464-0.872-0.936-1.72-1.384-2.648c-0.624-1.272-1.216-2.64-1.816-4c-0.416-0.952-0.84-1.856-1.248-2.856
			c-0.608-1.512-1.2-3.128-1.784-4.744c-0.352-0.976-0.728-1.904-1.072-2.912c-0.632-1.864-1.232-3.848-1.832-5.824
			c-0.264-0.872-0.544-1.688-0.8-2.584c-0.837-2.928-1.637-5.963-2.4-9.104c-0.851-3.601-4.06-6.148-7.76-6.16H200
			c-2.885,0-5.766-0.198-8.624-0.592c-8.619-1.199-16.905-4.138-24.352-8.64c-4.389-2.636-8.452-5.78-12.104-9.368
			C152.757,51.198,150.752,48.845,148.92,46.36z M160,178.96V136v-24c0.018-3.075,0.213-6.147,0.584-9.2
			c0.112-0.952,0.288-1.888,0.432-2.832c0.328-2.128,0.712-4.232,1.208-6.32c0.248-1.04,0.52-2.08,0.8-3.112
			c0.576-2.04,1.24-4.056,1.968-6.056c0.344-0.92,0.648-1.848,1.024-2.752c0.152-0.384,0.368-0.752,0.528-1.136
			c0.344,0.16,0.696,0.264,1.04,0.416c0.968,0.432,1.952,0.8,2.936,1.184c2.136,0.848,4.288,1.6,6.48,2.288
			c1.104,0.336,2.2,0.648,3.32,0.928c2.24,0.576,4.496,1.032,6.776,1.416c1.008,0.16,2.008,0.368,3.024,0.496
			c3.276,0.435,6.576,0.662,9.88,0.68h92.952c0.648,2.4,1.36,4.92,2.128,7.424c0.248,0.8,0.528,1.6,0.8,2.4
			c0.544,1.712,1.104,3.432,1.712,5.152c0.352,0.984,0.744,1.952,1.112,2.928c0.576,1.544,1.16,3.072,1.792,4.592
			c0.432,1.04,0.904,2.056,1.368,3.08c0.632,1.424,1.272,2.84,1.96,4.224c0.512,1.04,1.064,2.04,1.6,3.048
			c0.704,1.32,1.424,2.608,2.176,3.872c0.592,0.984,1.208,1.928,1.824,2.872c0.795,1.2,1.611,2.363,2.448,3.488
			c0.664,0.888,1.336,1.736,2.032,2.568c0.888,1.072,1.808,2.08,2.76,3.056c0.72,0.744,1.456,1.48,2.216,2.168
			c0.384,0.344,0.728,0.8,1.12,1.096v38.992c0.04,33.76-13.512,66.115-37.6,89.768l-1.648,1.656
			c-1.272,1.288-2.544,2.584-3.92,3.784c-21.069,18.438-52.531,18.438-73.6,0c-1.368-1.2-2.64-2.496-3.912-3.784l-1.72-1.664
			C173.508,245.072,159.956,212.719,160,178.96z M240,345.328l23.72,14.232L240,430.704l-23.72-71.144L240,345.328z M211.104,344
			L208,334.704v-5.76l15.384,7.696L211.104,344z M256.616,336.632L272,328.944v5.76L268.896,344L256.616,336.632z M240,326.672
			l-35.88-21.528c-1.244-0.748-2.668-1.144-4.12-1.144v-12.16c0.272,0.184,0.584,0.304,0.856,0.48
			c11.642,7.602,25.24,11.659,39.144,11.68c13.894-0.019,27.484-4.071,39.12-11.664c0.28-0.184,0.6-0.304,0.88-0.496V304
			c-1.45,0.003-2.873,0.395-4.12,1.136L240,326.672z M80,373.48c-0.003-4.493,0.746-8.955,2.216-13.2
			c4.31-12.591,14.664-22.169,27.552-25.488l41.376-7.384l35.448-6.312l45.824,137.432c1.03,3.135,3.814,5.201,6.905,5.472H80
			V373.48z M240.614,464c0.633-0.048,1.27-0.163,1.901-0.37c2.415-0.794,4.308-2.687,5.102-5.102l45.824-137.432l76.408,13.6
			c1.223,0.349,2.427,0.761,3.608,1.232c0.928,0.328,1.904,0.576,2.792,0.968c1.168,0.52,2.232,1.192,3.336,1.816
			c0.8,0.456,1.696,0.8,2.48,1.352c1.04,0.696,1.968,1.52,2.944,2.304c0.728,0.584,1.52,1.096,2.2,1.736
			c0.92,0.848,1.704,1.824,2.544,2.752c0.608,0.68,1.288,1.304,1.848,2.024c0.8,1.016,1.432,2.144,2.128,3.2
			c0.472,0.744,1.016,1.432,1.44,2.208c0.595,1.207,1.129,2.443,1.6,3.704c0.32,0.8,0.736,1.48,1.008,2.272
			c0.461,1.45,0.84,2.924,1.136,4.416c0.152,0.672,0.392,1.312,0.512,2c0.38,2.231,0.57,4.489,0.568,6.752L400,464H240.614z"/>
	</g>
</g>
<g>
</g>
<g>
</g>
<g>
</g>
<g>
</g>
<g>
</g>
<g>
</g>
<g>
</g>
<g>
</g>
<g>
</g>
<g>
</g>
<g>
</g>
<g>
</g>
<g>
</g>
<g>
</g>
<g>
</g>
</svg>
