<?xml version="1.0" encoding="iso-8859-1"?>
<!-- Generator: Adobe Illustrator 19.0.0, SVG Export Plug-In . SVG Version: 6.00 Build 0)  -->
<svg version="1.1" id="Capa_1" xmlns="http://www.w3.org/2000/svg" xmlns:xlink="http://www.w3.org/1999/xlink" x="0px" y="0px"
	 viewBox="0 0 480.027 480.027" style="enable-background:new 0 0 480.027 480.027;" xml:space="preserve">
<path style="fill:#7FC0E6;" d="M374.573,256.704L240.013,472l-134.56-215.296c-16.624-26.6-25.439-57.336-25.44-88.704
	c0-88.366,71.634-160,160-160s160,71.634,160,160C400.013,199.368,391.198,230.104,374.573,256.704L374.573,256.704z"/>
<path style="fill:#6EB6E6;" d="M152.013,331.152l88,140.848l134.56-215.296c16.624-26.6,25.439-57.336,25.44-88.704
	c-0.004-28.97-7.923-57.388-22.904-82.184C343.085,197.453,260.315,287.664,152.013,331.152L152.013,331.152z"/>
<circle style="fill:#FFEAB8;" cx="240.013" cy="168" r="120"/>
<circle style="fill:#FFF3C9;" cx="240.013" cy="168" r="96"/>
<path style="fill:#FC88A1;" d="M160.813,130.632c12.161-21.212,39.216-28.548,60.428-16.387c4.374,2.508,8.288,5.745,11.572,9.571
	l7.2,8.352l7.2-8.352c15.926-18.553,43.876-20.682,62.429-4.756c3.826,3.284,7.063,7.198,9.571,11.572
	c9.924,17.335,7.011,39.169-7.112,53.296L240.013,256l-72.072-72.072C153.814,169.805,150.893,147.971,160.813,130.632z"/>
<path style="fill:#FC7B97;" d="M319.213,130.632c-4.843-8.499-12.394-15.129-21.448-18.832
	c-16.586,46.624-50.622,84.99-94.936,107.016L240.013,256l72.072-72.072C326.213,169.805,329.133,147.971,319.213,130.632
	L319.213,130.632z"/>
<path d="M408.013,168c0-92.784-75.216-168-168-168s-168,75.216-168,168c-0.012,32.869,9.226,65.077,26.656,92.944l134.56,215.296
	c2.327,3.756,7.259,4.913,11.014,2.586c1.05-0.651,1.935-1.536,2.586-2.586l134.56-215.296
	C398.808,233.074,408.035,200.866,408.013,168L408.013,168z M367.797,252.464l-127.784,204.44l-127.784-204.44
	C96.396,227.138,88.004,197.869,88.013,168c0-83.947,68.053-152,152-152s152,68.053,152,152
	C392.023,197.869,383.631,227.138,367.797,252.464z"/>
<path d="M326.149,126.656c-14.365-25.046-46.314-33.706-71.361-19.341c-5.179,2.97-9.811,6.806-13.695,11.341l-1.08,1.216
	l-1.088-1.256c-18.779-21.927-51.777-24.479-73.704-5.7c-4.536,3.885-8.373,8.519-11.344,13.7
	c-11.704,20.492-8.262,46.28,8.408,62.984l72.072,72.072c3.124,3.123,8.188,3.123,11.312,0l72.072-72.072
	C334.389,172.901,337.83,147.139,326.149,126.656z M306.413,178.272l-66.4,66.4l-66.4-66.4
	c-11.546-11.586-13.929-29.457-5.824-43.664c9.944-17.385,32.099-23.417,49.484-13.473c3.602,2.06,6.823,4.723,9.524,7.873
	l7.152,8.352c3.098,3.358,8.331,3.569,11.689,0.471c0.163-0.151,0.32-0.308,0.471-0.471l7.144-8.352
	c13.041-15.206,35.94-16.961,51.146-3.92c3.148,2.7,5.81,5.92,7.87,9.52C320.366,148.822,317.97,166.694,306.413,178.272z"/>
<path d="M240.013,40c-70.692,0-128,57.308-128,128s57.308,128,128,128s128-57.308,128-128C367.93,97.342,310.671,40.084,240.013,40z
	 M240.013,280c-61.856,0-112-50.144-112-112s50.144-112,112-112s112,50.144,112,112C351.947,229.828,301.842,279.934,240.013,280z"
	/>
<g>
</g>
<g>
</g>
<g>
</g>
<g>
</g>
<g>
</g>
<g>
</g>
<g>
</g>
<g>
</g>
<g>
</g>
<g>
</g>
<g>
</g>
<g>
</g>
<g>
</g>
<g>
</g>
<g>
</g>
</svg>
