<?xml version="1.0" encoding="iso-8859-1"?>
<!-- Generator: Adobe Illustrator 19.0.0, SVG Export Plug-In . SVG Version: 6.00 Build 0)  -->
<svg version="1.1" id="Capa_1" xmlns="http://www.w3.org/2000/svg" xmlns:xlink="http://www.w3.org/1999/xlink" x="0px" y="0px"
	 viewBox="0 0 480 480" style="enable-background:new 0 0 480 480;" xml:space="preserve">
<circle style="fill:#FC88A1;" cx="240" cy="240" r="232"/>
<path style="fill:#FC7B97;" d="M434.608,113.768c-62.96,206.688-227.616,280.8-339.464,307.384
	c100.023,80.03,245.984,63.823,326.015-36.199C483.61,306.9,489.03,197.617,434.608,113.768z"/>
<circle style="fill:#8DD3E7;" cx="240" cy="240" r="192"/>
<circle style="fill:#A2DAE7;" cx="240" cy="240" r="160"/>
<g>
	<g>
		<path id="SVGCleanerId_0" style="fill:#FFFFFF;" d="M232,80h16v16h-16V80z"/>
	</g>
	<g>
		<path id="SVGCleanerId_1" style="fill:#FFFFFF;" d="M232,384h16v16h-16V384z"/>
	</g>
	<g>
		<path id="SVGCleanerId_2" style="fill:#FFFFFF;" d="M153.072,105.441l13.848-7.998l7.998,13.848l-13.848,7.998L153.072,105.441z"
			/>
	</g>
	<g>
		<path id="SVGCleanerId_3" style="fill:#FFFFFF;" d="M305.073,368.704l13.848-7.998l7.998,13.848l-13.848,7.998L305.073,368.704z"
			/>
	</g>
	<g>
		<path id="SVGCleanerId_4" style="fill:#FFFFFF;" d="M97.433,166.932l8-13.856l13.856,8l-8,13.856L97.433,166.932z"/>
	</g>
	<g>
		<path id="SVGCleanerId_5" style="fill:#FFFFFF;" d="M360.703,318.933l8-13.856l13.856,8l-8,13.856L360.703,318.933z"/>
	</g>
	<g>
		<path id="SVGCleanerId_6" style="fill:#FFFFFF;" d="M80,232h16v16H80V232z"/>
	</g>
	<g>
		<path id="SVGCleanerId_7" style="fill:#FFFFFF;" d="M384,232h16v16h-16V232z"/>
	</g>
	<g>
		<path id="SVGCleanerId_8" style="fill:#FFFFFF;" d="M97.437,313.072l13.857-7.999l7.999,13.857l-13.857,7.999L97.437,313.072z"/>
	</g>
	<g transform="matrix(1 0.00012 -0.00012 1 0.002 -0.005)">
		<path id="SVGCleanerId_9" style="fill:#FFFFFF;" d="M360.701,161.052l13.857-7.999l7.999,13.857l-13.857,7.999L360.701,161.052z"
			/>
	</g>
	<g>
		<path id="SVGCleanerId_10" style="fill:#FFFFFF;" d="M153.077,374.57l7.998-13.848l13.848,7.998l-7.998,13.848L153.077,374.57z"/>
	</g>
	<g>
		<path id="SVGCleanerId_11" style="fill:#FFFFFF;" d="M305.078,111.296l7.998-13.848l13.848,7.998l-7.998,13.848L305.078,111.296z"
			/>
	</g>
</g>
<path style="fill:#FC88A1;" d="M164.12,294.856l-8.24-13.712L232,235.472V112h16v128c-0.001,2.808-1.473,5.41-3.88,6.856
	L164.12,294.856z"/>
<path d="M240,0C107.452,0,0,107.452,0,240s107.452,240,240,240s240-107.452,240-240C479.85,107.514,372.486,0.15,240,0z M240,464
	C116.288,464,16,363.712,16,240S116.288,16,240,16s224,100.288,224,224C463.859,363.653,363.653,463.859,240,464z"/>
<path d="M240,40C129.543,40,40,129.543,40,240s89.543,200,200,200s200-89.543,200-200C439.877,129.594,350.406,40.123,240,40z
	 M240,424c-101.62,0-184-82.38-184-184S138.38,56,240,56s184,82.38,184,184C423.885,341.573,341.573,423.885,240,424z"/>
<path id="SVGCleanerId_0_1_" d="M232,80h16v16h-16V80z"/>
<path id="SVGCleanerId_1_1_" d="M232,384h16v16h-16V384z"/>
<path id="SVGCleanerId_2_1_" d="M153.072,105.441l13.848-7.998l7.998,13.848l-13.848,7.998L153.072,105.441z"/>
<path id="SVGCleanerId_3_1_" d="M305.073,368.704l13.848-7.998l7.998,13.848l-13.848,7.998L305.073,368.704z"/>
<path id="SVGCleanerId_4_1_" d="M97.433,166.932l8-13.856l13.856,8l-8,13.856L97.433,166.932z"/>
<path id="SVGCleanerId_5_1_" d="M360.703,318.933l8-13.856l13.856,8l-8,13.856L360.703,318.933z"/>
<path id="SVGCleanerId_6_1_" d="M80,232h16v16H80V232z"/>
<path id="SVGCleanerId_7_1_" d="M384,232h16v16h-16V232z"/>
<path id="SVGCleanerId_8_1_" d="M97.437,313.072l13.857-7.999l7.999,13.857l-13.857,7.999L97.437,313.072z"/>
<path id="SVGCleanerId_9_1_" d="M360.706,161.046l13.856-8l8,13.856l-13.856,8L360.706,161.046z"/>
<path id="SVGCleanerId_10_1_" d="M153.077,374.57l7.998-13.848l13.848,7.998l-7.998,13.848L153.077,374.57z"/>
<path id="SVGCleanerId_11_1_" d="M305.078,111.296l7.998-13.848l13.848,7.998l-7.998,13.848L305.078,111.296z"/>
<path d="M232,235.472l-76.12,45.672l8.24,13.712l80-48c2.407-1.446,3.879-4.048,3.88-6.856V112h-16V235.472z"/>
<g>
</g>
<g>
</g>
<g>
</g>
<g>
</g>
<g>
</g>
<g>
</g>
<g>
</g>
<g>
</g>
<g>
</g>
<g>
</g>
<g>
</g>
<g>
</g>
<g>
</g>
<g>
</g>
<g>
</g>
</svg>
